<svg preserveAspectRatio="none" width="100%" height="100%" overflow="visible" style="display: block;" viewBox="0 0 185.316 5.25332" fill="none" xmlns="http://www.w3.org/2000/svg">
<g id="Group 2">
<path id="Vector" d="M3.82549 5.16536H3.1602V2.8368H0.655532V5.16536H0V0.0679465H0.655532V2.25955H3.1602V0.0679465H3.82549V5.16536Z" fill="var(--fill-0, #00A355)"/>
<path id="Vector_2" d="M7.16175 3.17924V5.16536H6.49646V3.17924L4.73534 0.0679465H5.48872L6.82911 2.44545L8.1597 0.0679465H8.93263L7.16175 3.17924Z" fill="var(--fill-0, #00A355)"/>
<path id="Vector_3" d="M9.84244 3.15965V0.0679465H10.498V3.15965C10.498 4.02063 10.9382 4.61747 11.7699 4.61747C12.6015 4.61747 13.0418 4.02063 13.0418 3.15965V0.0679465H13.7071V3.15965C13.7071 4.36307 12.9928 5.21427 11.7797 5.21427C10.5665 5.21427 9.85223 4.36307 9.85223 3.15965" fill="var(--fill-0, #00A355)"/>
<path id="Vector_4" d="M18.8146 5.16536H18.1101L15.4783 1.21267V5.16536H14.8228V0.0679465H15.5272L18.1493 4.02063V0.0679465H18.8146V5.16536Z" fill="var(--fill-0, #00A355)"/>
<path id="Vector_5" d="M21.5537 4.65771C22.219 4.65771 22.6202 4.33484 22.6202 3.80651C22.6202 2.57375 20.0177 3.1021 20.0177 1.32144C20.0177 0.489808 20.7123 0.00059784 21.6418 0.0201656C22.3267 0.0201656 22.9137 0.401749 23.1877 1.16489L22.5908 1.38014C22.4343 0.861592 22.0527 0.59743 21.632 0.587646C21.0646 0.587646 20.6732 0.861574 20.6732 1.3312C20.6732 2.5444 23.2659 2.065 23.2659 3.81631C23.2659 4.6675 22.6006 5.25455 21.5342 5.23498C20.7906 5.23498 20.2036 4.80449 19.7829 4.0707L20.3308 3.7674C20.6145 4.33486 21.045 4.65772 21.5342 4.6675" fill="var(--fill-0, #00A355)"/>
<path id="Vector_6" d="M26.5243 0.00914664C28.0115 0.00914664 29.0584 1.08538 29.0584 2.62145C29.0584 4.15752 28.0115 5.22396 26.5243 5.22396C25.0372 5.22396 23.9903 4.14773 23.9903 2.62145C23.9903 1.09517 25.0372 0.00914664 26.5243 0.00914664ZM28.3931 2.61166C28.3931 1.40824 27.6299 0.586421 26.5243 0.586421C25.4188 0.586421 24.6556 1.40824 24.6556 2.61166C24.6556 3.81507 25.409 4.63692 26.5243 4.63692C27.6397 4.63692 28.3931 3.81507 28.3931 2.61166Z" fill="var(--fill-0, #00A355)"/>
<path id="Vector_7" d="M33.9111 5.16536H33.2067L30.5846 1.21267V5.16536H29.9291V0.0679465H30.6238L33.2458 4.02063V0.0679465H33.9111V5.16536Z" fill="var(--fill-0, #00A355)"/>
<path id="Vector_8" d="M39.7909 2.9352C39.7909 4.38321 38.7929 5.20505 37.4036 5.22462C35.9165 5.22462 34.8696 4.14839 34.8696 2.62211C34.8696 1.09583 35.9165 0.0195999 37.4036 0.0195999C38.9886 0.0195999 39.5561 1.24258 39.5561 1.24258L38.9788 1.52632C38.9788 1.52632 38.5777 0.587081 37.4036 0.587081C36.2296 0.587081 35.5251 1.4089 35.5251 2.61232C35.5251 3.81573 36.2785 4.63758 37.4036 4.63758C38.3918 4.59845 39.1549 4.10926 39.1549 3.0526H37.4917V2.49492H39.8007C39.8007 2.67102 39.8007 2.87649 39.8007 2.92541" fill="var(--fill-0, #00A355)"/>
<path id="Vector_9" d="M45.7788 0.64522H43.1763V2.24976H45.4168V2.827H43.1763V4.58811H45.7788V5.16536H42.5208V0.0679465H45.7788V0.64522Z" fill="var(--fill-0, #00A355)"/>
<path id="Vector_10" d="M46.8648 0.0679465H48.2932C49.7803 0.0679465 50.837 1.12462 50.837 2.62155C50.837 4.11848 49.7803 5.17512 48.2932 5.17512H46.8648V0.0777399V0.0679465ZM50.1815 2.61176C50.1815 1.43769 49.4085 0.635427 48.2736 0.635427H47.5105V4.57832H48.2736C49.3987 4.57832 50.1815 3.78582 50.1815 2.61176Z" fill="var(--fill-0, #00A355)"/>
<path id="Vector_11" d="M51.7471 3.15965V0.0679465H52.4026V3.15965C52.4026 4.02063 52.8429 4.61747 53.6745 4.61747C54.5062 4.61747 54.9464 4.02063 54.9464 3.15965V0.0679465H55.6117V3.15965C55.6117 4.36307 54.8975 5.21427 53.6843 5.21427C52.4711 5.21427 51.7569 4.36307 51.7569 3.15965" fill="var(--fill-0, #00A355)"/>
<path id="Vector_12" d="M56.4726 2.61227C56.4726 1.07621 57.5097 0 58.9871 0C59.6817 0 60.3177 0.293515 60.7677 0.76314L60.3275 1.17405C60.0046 0.812042 59.5154 0.577244 58.9773 0.577244C57.8815 0.577244 57.1281 1.3991 57.1281 2.60251C57.1281 3.80593 57.8815 4.62775 58.9773 4.62775C59.5252 4.62775 59.985 4.39296 60.2981 4.04074L60.7579 4.44185C60.3079 4.91148 59.7013 5.20499 58.9773 5.20499C57.4999 5.20499 56.4628 4.12879 56.4628 2.60251" fill="var(--fill-0, #00A355)"/>
<path id="Vector_13" d="M65.9821 5.16598H65.2776L64.7493 3.7473H62.5871L62.0392 5.16598H61.3347L63.2817 0.0587998H64.0644L65.9821 5.16598ZM64.5243 3.17985L63.6731 0.909991L62.8023 3.17985H64.5243Z" fill="var(--fill-0, #00A355)"/>
<path id="Vector_14" d="M69.7881 0.64522H68.3108V5.16536H67.6553V0.64522H66.1779V0.0679465H69.7881V0.64522Z" fill="var(--fill-0, #00A355)"/>
<path id="Vector_15" d="M71.4126 0.0679465H70.7571V5.17512H71.4126V0.0679465Z" fill="var(--fill-0, #00A355)"/>
<path id="Vector_16" d="M74.9251 0.00914664C76.4122 0.00914664 77.4591 1.08538 77.4591 2.62145C77.4591 4.15752 76.4122 5.22396 74.9251 5.22396C73.4379 5.22396 72.3911 4.14773 72.3911 2.62145C72.3911 1.09517 73.4379 0.00914664 74.9251 0.00914664ZM76.7938 2.61166C76.7938 1.40824 76.0307 0.586421 74.9251 0.586421C73.8195 0.586421 73.0564 1.40824 73.0564 2.61166C73.0564 3.81507 73.8097 4.63692 74.9251 4.63692C76.0404 4.63692 76.7938 3.81507 76.7938 2.61166Z" fill="var(--fill-0, #00A355)"/>
<path id="Vector_17" d="M82.3119 5.16536H81.6074L78.9854 1.21267V5.16536H78.3298V0.0679465H79.0245L81.6564 4.02063V0.0679465H82.3119V5.16536Z" fill="var(--fill-0, #00A355)"/>
<path id="Vector_18" d="M87.8099 5.16598H87.1054L86.5771 3.7473H84.4149L83.867 5.16598H83.1625L85.1095 0.0587998H85.8922L87.8099 5.16598ZM86.3521 3.17985L85.5009 0.909991L84.6301 3.17985H86.3521Z" fill="var(--fill-0, #00A355)"/>
<path id="Vector_19" d="M89.3557 4.58811H91.7136V5.16536H88.7002V0.0679465H89.3557V4.58811Z" fill="var(--fill-0, #00A355)"/>
<path id="Vector_20" d="M97.7992 5.16527L97.3589 4.66629C96.9871 5.00872 96.5175 5.25332 95.9305 5.25332C94.3651 5.25332 94.277 3.97163 94.277 3.77595C94.277 3.59006 94.3651 2.78779 95.1576 2.28882C94.9032 2.03444 94.639 1.7409 94.639 1.26149C94.639 0.782084 95.0499 0.0287466 95.9305 0.0287466C96.811 0.0287466 97.2415 0.72338 97.2415 1.26149C97.2415 1.79961 96.8893 2.15182 96.2925 2.48448L97.3296 3.63899C97.4959 3.38461 97.6426 3.0911 97.7796 2.8465L98.3765 3.16936C98.2297 3.45309 98.0536 3.8151 97.809 4.15754L98.7384 5.17504H97.7992V5.16527ZM95.9305 4.56844C96.3121 4.56844 96.6251 4.4119 96.8893 4.1673L95.6565 2.79757C95.0402 3.11065 94.9619 3.63898 94.9619 3.77595C94.9619 3.93249 95.0108 4.56844 95.9305 4.56844ZM95.8228 1.95617C96.3414 1.70179 96.5566 1.51589 96.5566 1.25173C96.5566 0.987565 96.3708 0.703835 95.9305 0.703835C95.4902 0.703835 95.3239 0.997349 95.3239 1.25173C95.3239 1.52568 95.5587 1.692 95.8228 1.95617Z" fill="var(--fill-0, #00A355)"/>
<path id="Vector_21" d="M101.067 2.61227C101.067 1.07621 102.104 0 103.582 0C104.276 0 104.902 0.293515 105.362 0.76314L104.922 1.17405C104.599 0.812042 104.11 0.577244 103.572 0.577244C102.476 0.577244 101.723 1.3991 101.723 2.60251C101.723 3.80593 102.476 4.62775 103.572 4.62775C104.12 4.62775 104.579 4.39296 104.893 4.04074L105.352 4.44185C104.902 4.91148 104.296 5.20499 103.572 5.20499C102.094 5.20499 101.057 4.12879 101.057 2.60251" fill="var(--fill-0, #00A355)"/>
<path id="Vector_22" d="M106.341 3.15965V0.0679465H106.996V3.15965C106.996 4.02063 107.437 4.61747 108.268 4.61747C109.1 4.61747 109.54 4.02063 109.54 3.15965V0.0679465H110.205V3.15965C110.205 4.36307 109.491 5.21427 108.278 5.21427C107.065 5.21427 106.351 4.36307 106.351 3.15965" fill="var(--fill-0, #00A355)"/>
<path id="Vector_23" d="M111.996 4.58811H114.344V5.16536H111.34V0.0679465H111.996V4.58811Z" fill="var(--fill-0, #00A355)"/>
<path id="Vector_24" d="M118.405 0.64522H116.937V5.16536H116.272V0.64522H114.804V0.0679465H118.405V0.64522Z" fill="var(--fill-0, #00A355)"/>
<path id="Vector_25" d="M119.441 3.15965V0.0679465H120.097V3.15965C120.097 4.02063 120.537 4.61747 121.369 4.61747C122.2 4.61747 122.641 4.02063 122.641 3.15965V0.0679465H123.306V3.15965C123.306 4.36307 122.592 5.21427 121.379 5.21427C120.165 5.21427 119.441 4.36307 119.441 3.15965Z" fill="var(--fill-0, #00A355)"/>
<path id="Vector_26" d="M124.45 0.0679465H126.319C127.249 0.0679465 127.904 0.69413 127.904 1.61381C127.904 2.29868 127.503 2.87593 126.75 3.11074L128.149 5.17512H127.346L125.996 3.19879H125.106V5.17512H124.45V0.0679465ZM127.239 1.62361C127.239 1.02679 126.848 0.64522 126.26 0.64522H125.106V2.61176H126.26C126.838 2.61176 127.239 2.22042 127.239 1.62361Z" fill="var(--fill-0, #00A355)"/>
<path id="Vector_27" d="M133.648 5.16598H132.943L132.415 3.7473H130.253L129.705 5.16598H129L130.947 0.0587998H131.73L133.648 5.16598ZM132.19 3.17985L131.339 0.909991L130.468 3.17985H132.19Z" fill="var(--fill-0, #00A355)"/>
<path id="Vector_28" d="M135.193 4.58811H137.551V5.16536H134.538V0.0679465H135.193V4.58811Z" fill="var(--fill-0, #00A355)"/>
<path id="Vector_29" d="M143.343 0.64522H140.819V2.32805H142.952V2.8955H140.819V5.16536H140.164V0.0679465H143.343V0.64522Z" fill="var(--fill-0, #00A355)"/>
<path id="Vector_30" d="M146.425 0.00914664C147.912 0.00914664 148.959 1.08538 148.959 2.62145C148.959 4.15752 147.912 5.22396 146.425 5.22396C144.938 5.22396 143.891 4.14773 143.891 2.62145C143.891 1.09517 144.938 0.00914664 146.425 0.00914664ZM148.304 2.61166C148.304 1.40824 147.54 0.586421 146.435 0.586421C145.329 0.586421 144.566 1.40824 144.566 2.61166C144.566 3.81507 145.319 4.63692 146.435 4.63692C147.55 4.63692 148.304 3.81507 148.304 2.61166Z" fill="var(--fill-0, #00A355)"/>
<path id="Vector_31" d="M149.889 3.15965V0.0679465H150.544V3.15965C150.544 4.02063 150.984 4.61747 151.816 4.61747C152.648 4.61747 153.088 4.02063 153.088 3.15965V0.0679465H153.753V3.15965C153.753 4.36307 153.039 5.21427 151.826 5.21427C150.613 5.21427 149.898 4.36307 149.898 3.15965" fill="var(--fill-0, #00A355)"/>
<path id="Vector_32" d="M158.861 5.16536H158.156L155.534 1.21267V5.16536H154.879V0.0679465H155.573L158.205 4.02063V0.0679465H158.861V5.16536Z" fill="var(--fill-0, #00A355)"/>
<path id="Vector_33" d="M160.084 0.0679465H161.512C162.999 0.0679465 164.056 1.12462 164.056 2.62155C164.056 4.11848 162.999 5.17512 161.512 5.17512H160.084V0.0777399V0.0679465ZM163.401 2.61176C163.401 1.43769 162.628 0.635427 161.493 0.635427H160.73V4.57832H161.493C162.618 4.57832 163.401 3.78582 163.401 2.61176Z" fill="var(--fill-0, #00A355)"/>
<path id="Vector_34" d="M168.977 5.16598H168.273L167.744 3.7473H165.582L165.034 5.16598H164.33L166.277 0.0587998H167.059L168.977 5.16598ZM167.519 3.17985L166.668 0.909991L165.797 3.17985H167.519Z" fill="var(--fill-0, #00A355)"/>
<path id="Vector_35" d="M172.783 0.64522H171.316V5.16536H170.65V0.64522H169.183V0.0679465H172.783V0.64522Z" fill="var(--fill-0, #00A355)"/>
<path id="Vector_36" d="M174.407 0.0679465H173.751V5.17512H174.407V0.0679465Z" fill="var(--fill-0, #00A355)"/>
<path id="Vector_37" d="M177.929 0.00914664C179.416 0.00914664 180.463 1.08538 180.463 2.62145C180.463 4.15752 179.416 5.22396 177.929 5.22396C176.442 5.22396 175.395 4.14773 175.395 2.62145C175.395 1.09517 176.442 0.00914664 177.929 0.00914664ZM179.798 2.61166C179.798 1.40824 179.035 0.586421 177.929 0.586421C176.824 0.586421 176.061 1.40824 176.061 2.61166C176.061 3.81507 176.814 4.63692 177.929 4.63692C179.045 4.63692 179.798 3.81507 179.798 2.61166Z" fill="var(--fill-0, #00A355)"/>
<path id="Vector_38" d="M185.316 5.16536H184.612L181.98 1.21267V5.16536H181.324V0.0679465H182.019L184.651 4.02063V0.0679465H185.316V5.16536Z" fill="var(--fill-0, #00A355)"/>
</g>
</svg>
