<svg preserveAspectRatio="none" width="100%" height="100%" overflow="visible" style="display: block;" viewBox="0 0 189.999 25.8324" fill="none" xmlns="http://www.w3.org/2000/svg">
<g id="Group 1">
<path id="Vector" d="M0 3.15446H5.50143V0.418352H8.18887V3.15446H13.6708V5.39397H11.295C12.1908 6.34821 12.775 7.57507 12.775 8.94799C12.775 12.2683 10.2921 14.5955 6.79648 14.5955C3.30087 14.5955 0.954242 12.2781 0.954242 8.94799C0.954242 7.57507 1.53846 6.34821 2.40505 5.39397H0V3.15446ZM6.78673 12.4144C8.77309 12.4144 10.1655 11.022 10.1655 8.94799C10.1655 6.874 8.77309 5.42318 6.78673 5.42318C4.80037 5.42318 3.5443 6.84479 3.5443 8.94799C3.5443 11.0512 4.85879 12.4144 6.78673 12.4144ZM4.52773 16.6598H7.26384V22.3364H20.146V24.576H4.52773V16.6695V16.6598ZM19.9512 0.359902V17.8282H17.2151V13.4076H13.5832V11.1973H17.2151V8.12034H13.5832V5.93925H17.2151V0.350186H19.9512V0.359902Z" fill="var(--fill-0, #3E3A39)"/>
<path id="Vector_2" d="M23.4468 11.6261H33.2325V8.05259H35.9686V11.6261H45.803V13.8364H23.4468V11.6261ZM31.6648 4.30382C33.1156 3.43722 33.3104 2.79458 33.3104 2.12272V0.107146H35.9978V2.12272C35.9978 2.79458 36.1925 3.43722 37.6142 4.30382L43.9043 8.05259L42.619 10.1753L36.3289 6.42649C35.5986 5.97858 35.0436 5.50147 34.6541 5.03409C34.2354 5.51121 33.6706 5.97858 32.9501 6.42649L26.6892 10.1753L25.4039 8.05259L31.6648 4.30382ZM28.2276 20.5452C28.2276 17.332 30.8858 15.3164 34.6541 15.3164C38.4223 15.3164 41.1098 17.332 41.1098 20.5452C41.1098 23.5929 38.4515 25.8324 34.6541 25.8324C30.8566 25.8324 28.2276 23.5929 28.2276 20.5452ZM34.6541 23.5637C36.8936 23.5637 38.4321 22.2784 38.4321 20.5452C38.4321 18.812 36.8936 17.5559 34.6541 17.5559C32.4146 17.5559 30.9053 18.8412 30.9053 20.5452C30.9053 22.2492 32.4146 23.5637 34.6541 23.5637Z" fill="var(--fill-0, #3E3A39)"/>
<path id="Vector_3" d="M52.5118 18.9481V12.1029H55.2285V18.9481H58.6365V12.1029H61.3531V18.9481H69.7951V21.2071H47.4096V18.9481H52.5216H52.5118ZM50.8566 2.59955H66.5332V15.7056H63.7387V4.82935H50.8566V2.58981V2.59955Z" fill="var(--fill-0, #3E3A39)"/>
<path id="Vector_4" d="M93.6994 11.9084V14.1187H87.9935V16.7185H90.457V25.0729H87.7501V18.8996H74.5856V16.7185H77.0198V14.1187H71.3431V11.9084H93.6994ZM82.4629 0C86.455 0 89.2496 2.12268 89.2496 5.45276C89.2496 8.52967 86.455 10.8179 82.4629 10.8179C78.4707 10.8179 75.8125 8.52967 75.8125 5.45276C75.8125 2.12268 78.5486 0 82.4629 0ZM82.4921 8.54913C84.9263 8.54913 86.6303 7.20542 86.6303 5.44301C86.6303 3.45665 84.9263 2.28821 82.4921 2.28821C80.0578 2.28821 78.4414 3.46639 78.4414 5.44301C78.4414 7.20542 80.087 8.54913 82.4921 8.54913ZM85.3158 14.1187H79.756V16.7185H85.3158V14.1187Z" fill="var(--fill-0, #3E3A39)"/>
<path id="Vector_5" d="M117.682 12.4339V14.6442H108.091V19.3374H105.326V14.6442H95.2675V12.4339H117.682ZM98.5878 1.2557H114.323V10.1456H98.5878V1.2557ZM98.7046 16.9908H101.441V22.3559H114.634V24.5954H98.7046V16.9908ZM111.616 3.43679H101.275V7.93534H111.616V3.43679Z" fill="var(--fill-0, #3E3A39)"/>
<path id="Vector_6" d="M134.362 19.562H119.328V17.3225H125.423V15.0343C122.687 14.4792 120.866 12.2982 120.866 9.35756C120.866 7.98464 121.45 6.75777 122.288 5.80354H119.824V3.53479H125.579V0.574719H128.091V3.53479H133.846V5.80354H131.363C132.229 6.75777 132.784 7.98464 132.784 9.35756C132.784 12.3176 130.915 14.5279 128.149 15.0537V17.3225H134.352V19.562H134.362ZM126.815 12.8824C128.86 12.8824 130.253 11.4608 130.253 9.35756C130.253 7.25436 128.86 5.86196 126.815 5.86196C124.771 5.86196 123.378 7.25436 123.378 9.35756C123.378 11.4608 124.771 12.8824 126.815 12.8824ZM135.783 0.341039H138.519V10.6526H142.093V12.97H138.519V24.2358H135.783V0.341039Z" fill="var(--fill-0, #3E3A39)"/>
<path id="Vector_7" d="M146.514 9.98072C147.439 8.38384 147.663 7.41014 147.663 6.12485V4.75192H143.583V2.51241H154.342V4.75192H150.262V6.12485C150.262 7.41014 150.486 8.38384 151.411 9.98072L155.238 16.4948L153.057 17.7801L149.23 11.266C149.143 11.1005 149.035 10.935 148.977 10.7889C148.889 10.9252 148.782 11.1005 148.695 11.266L144.868 17.7801L142.687 16.4948L146.514 9.98072ZM164.371 0.341039V24.2358H161.772V12.3858H158.977V23.0381H156.406V0.847355H158.977V10.156H161.772V0.350785H164.371V0.341039Z" fill="var(--fill-0, #3E3A39)"/>
<path id="Vector_8" d="M168.51 1.98576H179.776V4.22527H171.226V11.0704H181.402V13.3392H168.52V1.99551L168.51 1.98576ZM171.304 16.4063H174.04V22.3265H187.088V24.566H171.295V16.4063H171.304ZM186.455 0.310986V7.46773H190V9.70724H186.455V17.2827H183.719V0.320732H186.455V0.310986Z" fill="var(--fill-0, #3E3A39)"/>
</g>
</svg>
