<svg preserveAspectRatio="none" width="100%" height="100%" overflow="visible" style="display: block;" viewBox="0 0 71.2034 41.9998" fill="none" xmlns="http://www.w3.org/2000/svg">
<g id="Group 1261156288">
<path id="Vector" d="M35.9015 11.8743C37.9508 10.6903 39.3282 8.47328 39.3282 5.93717C39.3282 3.40107 37.9508 1.19247 35.9015 0C33.8522 1.18407 32.4748 3.40107 32.4748 5.93717C32.4748 8.47328 33.8522 10.6819 35.9015 11.8743Z" fill="var(--fill-0, #00A355)"/>
<path id="Vector_2" d="M55.859 15.7279C57.6563 13.9308 58.2443 11.3947 57.6312 9.1105C55.3467 8.49747 52.8018 9.0937 51.0129 10.8824C49.2156 12.6711 48.6277 15.2156 49.2408 17.4998C51.5252 18.1128 54.0701 17.5166 55.859 15.7279Z" fill="var(--fill-0, #00A355)"/>
<path id="Vector_3" d="M22.5545 17.499C23.1676 15.2149 22.5713 12.6704 20.7824 10.8817C18.985 9.08457 16.4486 8.49673 14.1641 9.10976C13.551 11.3939 14.1473 13.93 15.9363 15.7271C17.7336 17.5158 20.2701 18.1121 22.5545 17.499Z" fill="var(--fill-0, #00A355)"/>
<path id="Vector_4" d="M11.8759 33.5714C10.6916 31.5224 8.47436 30.1452 5.93792 30.1452C3.40149 30.1452 1.19263 31.5224 0 33.5714C1.18423 35.6205 3.40149 36.9977 5.93792 36.9977C8.47436 36.9977 10.6832 35.6205 11.8759 33.5714Z" fill="var(--fill-0, #00A355)"/>
<path id="Vector_5" d="M17.0464 25.6847C14.6528 24.8449 12.108 25.4076 10.3106 26.9528C10.7473 29.2789 12.3767 31.3112 14.7704 32.1509C17.164 32.9907 19.7089 32.428 21.5062 30.8829C21.0695 28.5567 19.4401 26.5245 17.0464 25.6847Z" fill="var(--fill-0, #00A355)"/>
<path id="Vector_6" d="M14.6668 35.1414C12.3823 36.2415 10.9798 38.4417 10.795 40.793C12.7519 42.1283 15.3387 42.4138 17.6316 41.3137C19.9161 40.2136 21.3187 38.0134 21.5034 35.662C19.5465 34.3268 16.9597 34.0413 14.6668 35.1414Z" fill="var(--fill-0, #00A355)"/>
<path id="Vector_7" d="M65.2655 30.1452C62.729 30.1452 60.5202 31.5224 59.3275 33.5714C60.5118 35.6205 62.729 36.9977 65.2655 36.9977C67.8019 36.9977 70.0108 35.6205 71.2034 33.5714C70.0192 31.5224 67.8019 30.1452 65.2655 30.1452Z" fill="var(--fill-0, #00A355)"/>
<path id="Vector_8" d="M54.173 25.6869C51.7793 26.5267 50.1499 28.5589 49.7132 30.8851C51.5106 32.4219 54.0554 32.9929 56.449 32.1531C58.8427 31.3134 60.472 29.2811 60.9088 26.955C59.1114 25.4182 56.5666 24.8471 54.173 25.6869Z" fill="var(--fill-0, #00A355)"/>
<path id="Vector_9" d="M49.7132 35.6704C49.898 38.0302 51.2922 40.2304 53.585 41.3221C55.8695 42.4222 58.4647 42.1367 60.4217 40.8014C60.2369 38.4417 58.8427 36.2415 56.5498 35.1414C54.2653 34.0413 51.6701 34.3268 49.7132 35.662" fill="var(--fill-0, #00A355)"/>
</g>
</svg>
