<svg preserveAspectRatio="none" width="100%" height="100%" overflow="visible" style="display: block;" viewBox="0 0 64 51" fill="none" xmlns="http://www.w3.org/2000/svg">
<path id="Vector" d="M61.4939 37.4207C51.0884 37.4207 41.7368 32.7965 35.3607 25.4956C41.7368 18.1946 51.0884 13.5704 61.4939 13.5704C62.8842 13.5704 64 12.441 64 11.0537C64 9.66644 62.8753 8.53706 61.4939 8.53706C53.754 8.53706 46.5366 10.778 40.4173 14.6286C41.6305 10.8047 42.2947 6.73182 42.2947 2.51665C42.2947 1.12049 41.17 0 39.7797 0C38.3894 0 37.2736 1.12938 37.2736 2.51665C37.2736 9.28405 35.343 15.6068 32.0044 20.9691C28.6658 15.6157 26.7353 9.29294 26.7353 2.51665C26.7353 1.12049 25.6106 0 24.2203 0C22.83 0 21.7141 1.12938 21.7141 2.51665C21.7141 6.74072 22.3783 10.8047 23.5915 14.6286C17.4722 10.778 10.2549 8.53706 2.51501 8.53706C1.12467 8.53706 0 9.66644 0 11.0537C0 12.441 1.12467 13.5704 2.51501 13.5704C12.9204 13.5704 22.272 18.1946 28.6481 25.4956C22.272 32.7965 12.9293 37.4207 2.51501 37.4207C1.12467 37.4207 0 38.5501 0 39.9374C0 41.3247 1.12467 42.4629 2.51501 42.4629C10.2549 42.4629 17.4722 40.222 23.5915 36.3714C22.3783 40.1953 21.7141 44.2682 21.7141 48.4833C21.7141 49.8795 22.8388 51 24.2203 51C25.6018 51 26.7353 49.8706 26.7353 48.4833C26.7353 41.716 28.6747 35.3932 32.0044 30.0309C35.343 35.3843 37.2736 41.7071 37.2736 48.4833C37.2736 49.8795 38.3982 51 39.7797 51C41.1612 51 42.2947 49.8706 42.2947 48.4833C42.2947 44.2593 41.6305 40.1953 40.4173 36.3714C46.5366 40.222 53.754 42.4629 61.4939 42.4629C62.8842 42.4629 64 41.3336 64 39.9374C64 38.5412 62.8753 37.4207 61.4939 37.4207Z" fill="var(--fill-0, #00A355)"/>
</svg>
