<svg preserveAspectRatio="none" width="100%" height="100%" overflow="visible" style="display: block;" viewBox="0 0 105 85.4553" fill="none" xmlns="http://www.w3.org/2000/svg">
<g id="Group 4">
<path id="Vector" d="M52.9454 17.5985C55.9674 15.8436 57.9985 12.5579 57.9985 8.79925C57.9985 5.04059 55.9674 1.76731 52.9454 0C49.9235 1.75487 47.8923 5.04059 47.8923 8.79925C47.8923 12.5579 49.9235 15.8312 52.9454 17.5985Z" fill="var(--fill-0, #00A355)"/>
<path id="Vector_2" d="M82.3736 23.2967C85.024 20.6332 85.8909 16.8746 84.9868 13.4893C81.6181 12.5808 77.8654 13.4644 75.2274 16.1154C72.577 18.7664 71.7101 22.5375 72.6142 25.9227C75.9829 26.8313 79.7355 25.9476 82.3736 23.2967Z" fill="var(--fill-0, #00A355)"/>
<path id="Vector_3" d="M33.2665 25.9245C34.1706 22.5393 33.2913 18.7682 30.6533 16.1172C28.0029 13.4538 24.2626 12.5826 20.8939 13.4911C19.9898 16.8764 20.8691 20.635 23.5071 23.2985C26.1575 25.9494 29.8978 26.8331 33.2665 25.9245Z" fill="var(--fill-0, #00A355)"/>
<path id="Vector_4" d="M17.5124 49.7574C15.7661 46.7206 12.4965 44.6795 8.7562 44.6795C5.01591 44.6795 1.75868 46.7206 0 49.7574C1.74629 52.7942 5.01591 54.8353 8.7562 54.8353C12.4965 54.8353 15.7538 52.7942 17.5124 49.7574Z" fill="var(--fill-0, #00A355)"/>
<path id="Vector_5" d="M25.1291 38.0712C21.5994 36.8267 17.8468 37.6605 15.1964 39.9506C15.8404 43.3981 18.2431 46.41 21.7728 47.6546C25.3025 48.8992 29.0552 48.0653 31.7056 45.7752C31.0616 42.3277 28.6589 39.3158 25.1291 38.0712Z" fill="var(--fill-0, #00A355)"/>
<path id="Vector_6" d="M21.6235 52.0721C18.2548 53.7025 16.1865 56.9633 15.914 60.4481C18.7997 62.427 22.6143 62.8502 25.9954 61.2198C29.3642 59.5894 31.4325 56.3286 31.705 52.8437C28.8192 50.8648 25.0046 50.4417 21.6235 52.0721Z" fill="var(--fill-0, #00A355)"/>
<path id="Vector_7" d="M96.2438 44.6795C92.5035 44.6795 89.2462 46.7206 87.4875 49.7574C89.2338 52.7942 92.5035 54.8353 96.2438 54.8353C99.984 54.8353 103.241 52.7942 105 49.7574C103.254 46.7206 99.984 44.6795 96.2438 44.6795Z" fill="var(--fill-0, #00A355)"/>
<path id="Vector_8" d="M79.8836 38.0729C76.3539 39.3175 73.9512 42.3294 73.3072 45.7769C75.9576 48.0545 79.7102 48.9008 83.24 47.6562C86.7697 46.4116 89.1724 43.3997 89.8164 39.9522C87.166 37.6746 83.4134 36.8283 79.8836 38.0729Z" fill="var(--fill-0, #00A355)"/>
<path id="Vector_9" d="M73.3072 52.8562C73.5797 56.3534 75.6356 59.6143 79.0167 61.2322C82.3854 62.8627 86.2124 62.4395 89.0981 60.4606C88.8256 56.9633 86.7697 53.7025 83.3886 52.0721C80.0199 50.4417 76.1929 50.8648 73.3072 52.8437" fill="var(--fill-0, #00A355)"/>
<path id="Vector_10" d="M94.2008 66.4504C79.6483 66.4504 66.5697 59.9785 57.6525 49.7605C66.5697 39.5424 79.6483 33.0705 94.2008 33.0705C96.1452 33.0705 97.7057 31.4899 97.7057 29.5484C97.7057 27.6068 96.1328 26.0262 94.2008 26.0262C83.3762 26.0262 73.2824 29.1625 64.7243 34.5516C66.4211 29.1999 67.35 23.4997 67.35 17.6003C67.35 15.6463 65.7771 14.0781 63.8326 14.0781C61.8882 14.0781 60.3277 15.6587 60.3277 17.6003C60.3277 27.0716 57.6277 35.9206 52.9585 43.4255C48.2894 35.9331 45.5895 27.0841 45.5895 17.6003C45.5895 15.6463 44.0166 14.0781 42.0721 14.0781C40.1277 14.0781 38.5671 15.6587 38.5671 17.6003C38.5671 23.5121 39.496 29.1999 41.1928 34.5516C32.6347 29.1625 22.5409 26.0262 11.7164 26.0262C9.77192 26.0262 8.19902 27.6068 8.19902 29.5484C8.19902 31.4899 9.77192 33.0705 11.7164 33.0705C26.2688 33.0705 39.3474 39.5424 48.2646 49.7605C39.3474 59.9785 26.2812 66.4504 11.7164 66.4504C9.77192 66.4504 8.19902 68.031 8.19902 69.9726C8.19902 71.9141 9.77192 73.5072 11.7164 73.5072C22.5409 73.5072 32.6347 70.3709 41.1928 64.9818C39.496 70.3335 38.5671 76.0337 38.5671 81.9331C38.5671 83.8871 40.1401 85.4553 42.0721 85.4553C44.0042 85.4553 45.5895 83.8746 45.5895 81.9331C45.5895 72.4618 48.3018 63.6127 52.9585 56.1079C57.6277 63.6003 60.3277 72.4493 60.3277 81.9331C60.3277 83.8871 61.9005 85.4553 63.8326 85.4553C65.7647 85.4553 67.35 83.8746 67.35 81.9331C67.35 76.0213 66.4211 70.3335 64.7243 64.9818C73.2824 70.3709 83.3762 73.5072 94.2008 73.5072C96.1452 73.5072 97.7057 71.9266 97.7057 69.9726C97.7057 68.0186 96.1328 66.4504 94.2008 66.4504Z" fill="var(--fill-0, #00A355)"/>
</g>
</svg>
